<?xml version="1.0" encoding="UTF-8" standalone="no" ?>
<!DOCTYPE svg PUBLIC "-//W3C//DTD SVG 1.1//EN" "http://www.w3.org/Graphics/SVG/1.1/DTD/svg11.dtd">
<svg xmlns="http://www.w3.org/2000/svg" xmlns:xlink="http://www.w3.org/1999/xlink" version="1.1" width="109.3" height="109.26239999999999" xml:space="preserve">
<desc>Created with Fabric.js 1.6.0-rc.1</desc>
<defs></defs>
<g style="stroke: none; stroke-width: 1; stroke-dasharray: none; stroke-linecap: butt; stroke-linejoin: miter; stroke-miterlimit: 10; fill: none; fill-rule: nonzero; opacity: 1;" transform="translate(10 10) scale(3.76 3.76)" >
  <path d="M 11.618 0.091 c 0 0.329 0 0.658 0 0.987 c 0.436 0.168 1.078 0.129 1.561 0.248 c 0.157 -0.286 0.167 -0.71 0.251 -1.067 c 0.729 0.008 1.167 0.312 1.81 0.409 c -0.051 0.417 -0.208 0.725 -0.328 1.07 c 0.379 0.335 0.994 0.433 1.399 0.74 c 0.259 -0.26 0.432 -0.61 0.578 -0.988 c 0.592 0.288 1.13 0.625 1.564 1.072 c -0.135 0.387 -0.461 0.583 -0.663 0.907 c 0.271 0.204 0.358 0.364 0.579 0.574 c 0.05 0.049 0.498 0.575 0.576 0.578 c 0.33 0.015 0.561 -0.74 0.823 -0.741 c 0.41 -0.003 0.88 1.082 1.155 1.399 c -0.168 0.356 -0.584 0.461 -0.907 0.661 c 0.15 0.562 0.538 0.887 0.658 1.481 c 0.454 -0.071 0.703 -0.342 1.155 -0.412 c 0.246 0.549 0.461 1.134 0.574 1.812 c -0.412 0.056 -0.774 0.154 -1.15 0.247 c 0.025 0.523 0.233 0.87 0.164 1.484 c 0.27 0.167 0.834 0.045 1.235 0.083 c 0.195 0.518 0.045 1.343 0 1.895 c -0.31 -0.13 -0.869 -0.011 -1.155 -0.167 c -0.16 0.469 -0.215 1.048 -0.325 1.566 c 0.307 0.184 0.695 0.291 1.152 0.328 c -0.109 0.687 -0.413 1.184 -0.578 1.812 c -0.457 -0.088 -0.8 -0.296 -1.151 -0.495 c -0.315 0.43 -0.487 0.999 -0.827 1.402 c 0.3 0.248 0.632 0.465 0.987 0.659 c -0.274 0.597 -0.668 1.081 -1.153 1.482 c -0.43 -0.118 -0.54 -0.555 -0.906 -0.741 c -0.424 0.312 -0.708 0.771 -1.234 0.986 c 0.2 0.407 0.589 0.624 0.742 1.072 c -0.526 0.349 -1.009 0.748 -1.646 0.989 c -0.109 -0.415 -0.34 -0.704 -0.498 -1.071 c -0.536 0.15 -0.896 0.477 -1.48 0.578 c 0.033 0.485 0.292 0.748 0.33 1.234 c -0.585 0.158 -1.134 0.349 -1.814 0.413 c -0.104 -0.335 -0.15 -0.729 -0.163 -1.154 c -0.633 -0.058 -1.013 0.14 -1.646 0.083 c -0.04 0.398 0.084 0.962 -0.084 1.235 c -0.651 -0.012 -1.192 -0.129 -1.814 -0.164 c -0.01 -0.451 0.096 -0.784 0.17 -1.154 c -0.399 -0.264 -1.124 -0.197 -1.485 -0.493 c -0.282 0.268 -0.308 0.791 -0.498 1.151 c -0.625 -0.194 -1.148 -0.495 -1.729 -0.74 c 0.099 -0.398 0.369 -0.62 0.498 -0.989 c -0.249 -0.495 -0.929 -0.554 -1.236 -0.99 c -0.314 0.237 -0.541 0.562 -0.741 0.907 c -0.526 -0.353 -0.998 -0.761 -1.401 -1.234 c 0.18 -0.37 0.553 -0.545 0.822 -0.822 c -0.343 -0.428 -0.716 -0.826 -0.986 -1.32 c -0.359 0.19 -0.601 0.502 -1.071 0.577 c -0.264 -0.534 -0.574 -1.022 -0.827 -1.564 c 0.281 -0.243 0.688 -0.359 1.071 -0.494 c -0.201 -0.485 -0.424 -0.949 -0.493 -1.566 c -0.432 0.037 -0.721 0.21 -1.155 0.247 c -0.15 -0.521 -0.34 -1.398 -0.246 -1.894 c 0.381 -0.006 0.805 0.034 1.072 -0.084 c 0 -0.548 0 -1.099 0 -1.646 C 0.698 10.514 0.376 10.422 0 10.388 c 0.132 -0.582 0.175 -1.255 0.33 -1.811 C 0.789 8.529 0.965 8.764 1.4 8.741 c 0.275 -0.389 0.275 -1.046 0.577 -1.4 c -0.201 -0.294 -0.64 -0.35 -0.987 -0.496 c 0.128 -0.722 0.593 -1.11 0.823 -1.727 C 2.171 5.28 2.424 5.551 2.805 5.692 c 0.313 -0.427 0.632 -0.848 0.986 -1.236 c -0.158 -0.335 -0.552 -0.437 -0.742 -0.74 c 0.292 -0.585 0.911 -0.848 1.32 -1.319 c 0.292 0.201 0.446 0.547 0.658 0.825 c 0.548 -0.194 0.881 -0.604 1.4 -0.825 c -0.124 -0.341 -0.234 -0.7 -0.494 -0.907 c 0.464 -0.415 1.094 -0.66 1.81 -0.822 C 7.75 1.074 7.987 1.25 7.992 1.656 c 0.625 -0.033 0.98 -0.341 1.648 -0.33 C 9.625 0.9 9.487 0.604 9.475 0.174 C 10.152 0.152 10.971 -0.126 11.618 0.091 z" style="stroke: none; stroke-width: 1; stroke-dasharray: none; stroke-linecap: butt; stroke-linejoin: miter; stroke-miterlimit: 10; fill: #26b598; fill-rule: nonzero; opacity: 1;" transform="" stroke-linecap="round" />
</g>
</svg>